<?xml version="1.0" encoding="utf-8"?>
<!-- Generator: Adobe Illustrator 23.0.2, SVG Export Plug-In . SVG Version: 6.00 Build 0)  -->
<svg version="1.1" id="Layer_1" xmlns="http://www.w3.org/2000/svg" xmlns:xlink="http://www.w3.org/1999/xlink" x="0px" y="0px"
	 viewBox="0 0 43.9 47.2" style="enable-background:new 0 0 43.9 47.2;" xml:space="preserve">
<style type="text/css">
	.st0{fill:#00B3FF;}
	.st1{fill:none;}
	.st2{fill:none;stroke:#000000;stroke-width:4;stroke-linecap:square;stroke-miterlimit:10;}
	.st3{fill:none;stroke:#000000;stroke-width:3;stroke-linecap:round;stroke-miterlimit:10;}
	.st4{fill-rule:evenodd;clip-rule:evenodd;}
</style>
<path class="st3" d="M27,1.5c0,0,5,6.1-3,17.4"/>
<path class="st3" d="M17,1.5c0,0-5,6.1,3,17.4"/>
<path class="st3" d="M36,10.9c0,0-4.5,6.7-11,10"/>
<path class="st3" d="M8,10.9c0,0,4.5,6.7,11,10"/>
<path class="st3" d="M23,21.7c0,0,8.6,13,9,24"/>
<path class="st3" d="M1.5,21.5c0,0,4,3.8,17.5,0.2"/>
<path class="st3" d="M42.4,21.5c0,0-4,3.8-17.5,0.2"/>
<path class="st3" d="M21,21.7c0,0-8.6,13-9,24"/>
<circle class="st4" cx="22" cy="20.9" r="5"/>
</svg>
