<?xml version="1.0" encoding="utf-8"?>
<!-- Generator: Adobe Illustrator 23.0.2, SVG Export Plug-In . SVG Version: 6.00 Build 0)  -->
<svg version="1.1" id="Layer_1" xmlns="http://www.w3.org/2000/svg" xmlns:xlink="http://www.w3.org/1999/xlink" x="0px" y="0px"
	 viewBox="0 0 154.5 237.8" style="enable-background:new 0 0 154.5 237.8;" xml:space="preserve">
<style type="text/css">
	.st0{fill:none;stroke:#FFFFFF;stroke-width:3;stroke-linecap:round;stroke-miterlimit:10;}
</style>
<g>
	<line class="st0" x1="153" y1="30.3" x2="1.5" y2="194.5"/>
	<line class="st0" x1="30.5" y1="1.5" x2="153" y2="158.5"/>
	<line class="st0" x1="118.3" y1="236.2" x2="86.8" y2="1.5"/>
	<line class="st0" x1="153" y1="80" x2="1.5" y2="106.8"/>
	<path class="st0" d="M71.3,118.9c0,0,2.7-9-11.5-22.4c0,0,11-8.9,10.8-43.7c0,0,18.6,5.4,22.4-5.5c0,0,14,17.8,29.7,15.9
		c0,0-4.4,11,4.7,21.3c0,0-13.9,13.1-9,27.8c0,0-11.8-2.1-15.1,11.3C103.2,123.7,93.9,112.4,71.3,118.9z"/>
	<path class="st0" d="M47.3,146c0,0,4-24.5-16.8-44c0,0,26-17.6,25.8-68.3c0,0,30.1,7.7,35.7-8.1c0,0,20.6,27.6,43.5,24.8
		c0,0-6.3,16.5,10.8,31.2c0,0-25,22.9-18,44.4c0,0-16.1,3.2-21,22.7C107.3,148.7,88.4,129.2,47.3,146z"/>
</g>
</svg>
