<?xml version="1.0" encoding="utf-8"?>
<!-- Generator: Adobe Illustrator 23.0.2, SVG Export Plug-In . SVG Version: 6.00 Build 0)  -->
<svg version="1.1" id="Layer_1" xmlns="http://www.w3.org/2000/svg" xmlns:xlink="http://www.w3.org/1999/xlink" x="0px" y="0px"
	 viewBox="0 0 39 50.7" style="enable-background:new 0 0 39 50.7;" xml:space="preserve">
<style type="text/css">
	.st0{fill:#00B3FF;}
	.st1{fill:none;}
	.st2{fill:none;stroke:#000000;stroke-width:4;stroke-linecap:square;stroke-miterlimit:10;}
	.st3{fill:none;stroke:#000000;stroke-width:3;stroke-linecap:round;stroke-miterlimit:10;}
	.st4{fill-rule:evenodd;clip-rule:evenodd;}
</style>
<line class="st0" x1="118.9" y1="-149.1" x2="438.9" y2="-149.1"/>
<line class="st1" x1="438.9" y1="-149.1" x2="118.9" y2="-149.1"/>
<line class="st1" x1="438.9" y1="-149.1" x2="118.9" y2="-149.1"/>
<line class="st1" x1="438.9" y1="-149.1" x2="118.9" y2="-149.1"/>
<line class="st1" x1="438.9" y1="-149.1" x2="118.9" y2="-149.1"/>
<line class="st1" x1="438.9" y1="-149.1" x2="118.9" y2="-149.1"/>
<path class="st2" d="M405.4,88.9"/>
<path class="st3" d="M28.5,1.5c0,0-1.7,17.6-7,21"/>
<path class="st3" d="M10.5,1.5c0,0,1.7,17.6,7,21"/>
<path class="st3" d="M33.5,14.5c0,0-4.5,6.7-11,10"/>
<path class="st3" d="M5.5,14.5c0,0,4.5,6.7,11,10"/>
<g>
	<path class="st3" d="M20.5,25.2c0,0,8.6,13,9,24"/>
	<path class="st3" d="M1.5,34.2c0,0,5.4,1.1,15-9"/>
	<path class="st3" d="M37.5,34.2c0,0-5.4,1.1-15-9"/>
	<path class="st3" d="M18.5,25.2c0,0-8.6,13-9,24"/>
</g>
<circle class="st4" cx="19.5" cy="24.5" r="5"/>
</svg>
