<?xml version="1.0" encoding="utf-8"?>
<!-- Generator: Adobe Illustrator 23.0.2, SVG Export Plug-In . SVG Version: 6.00 Build 0)  -->
<svg version="1.1" id="Layer_1" xmlns="http://www.w3.org/2000/svg" xmlns:xlink="http://www.w3.org/1999/xlink" x="0px" y="0px"
	 viewBox="0 0 200 200" style="enable-background:new 0 0 200 200;" xml:space="preserve">
<style type="text/css">
	.st0{fill:none;stroke:#000000;stroke-width:3.5;stroke-miterlimit:10;}
	.st1{fill:none;stroke:#000000;stroke-width:3;stroke-linejoin:round;stroke-miterlimit:10;}
	.st2{fill:none;stroke:#000000;stroke-width:3;stroke-linecap:square;stroke-miterlimit:10;}
</style>
<g>
	<path class="st0" d="M113.4,45.4c-7.9,3-13.3,7.9-13.3,7.9s-5.4-4.9-13.3-7.9c-10.5-4-24.2-5.1-24.2,7.6
		c0,22.2,21.8,54.4,37.5,54.4s37.5-32.1,37.5-54.4C137.6,40.3,123.9,41.4,113.4,45.4z"/>
	<path class="st0" d="M108.4,68c1.2,4.3,6.7,6.4,12.4,4.9c5.7-1.6,9.3-6.3,8.2-10.5c-1.2-4.3-6.7-6.4-12.4-4.9
		C110.9,59,107.3,63.7,108.4,68z"/>
	<path class="st0" d="M140.3,197.3c7.5-9.1,12.1-20.5,12.1-33.1c0-0.6-0.2-1.2-0.2-1.8l8.9-1.8v-33.5c0-11.2-7.1-20.6-16.9-23.7"/>
	<path class="st0" d="M55.9,103.4c-9.8,3-16.9,12-16.9,22.7v34.5l8.9,1.8c0,0.6-0.2,1.2-0.2,1.8c0,12.6,4.7,24.1,12.1,33.1"/>
	<path class="st0" d="M91.7,68c-1.2,4.3-6.7,6.4-12.4,4.9s-9.3-6.3-8.2-10.5c1.2-4.3,6.7-6.4,12.4-4.9C89.2,59,92.9,63.7,91.7,68z"
		/>
	<path class="st0" d="M113.3,101.4v72.8c0,7.4,6,13.4,13.4,13.4h4.1c7.4,0,13.4-6,13.4-13.4V46.4c-0.5-24-20-43.2-44.1-43.2
		S56.5,22.4,56,46.4v127.8c0,7.4,6,13.4,13.4,13.4h3.2c7.4,0,13.4-6,13.4-13.4v-73.5"/>
	<path class="st0" d="M113.4,45.4c-7.9,3-13.3,7.9-13.3,7.9s-5.4-4.9-13.3-7.9c-10.5-4-24.2-5.1-24.2,7.6
		c0,22.2,21.8,54.4,37.5,54.4s37.5-32.1,37.5-54.4C137.6,40.3,123.9,41.4,113.4,45.4z"/>
	<path class="st1" d="M94.1,95.3c1.1,2.2,3.3,3.8,6,3.8c2.6,0,4.9-1.6,6-3.8H94.1z"/>
	<polyline class="st0" points="55.9,164.1 39,160.7 39,197.3 	"/>
	<polyline class="st0" points="144.2,164.1 161.1,160.7 161.1,197.3 	"/>
</g>
<line class="st2" x1="96.1" y1="86.7" x2="104" y2="86.7"/>
<line class="st2" x1="100.5" y1="86.7" x2="100.5" y2="65.2"/>
</svg>
